<?xml version="1.0" encoding="UTF-8" ?>
<svg version="1.1" width="256" height="200" xmlns="http://www.w3.org/2000/svg" shape-rendering="crispEdges">
<rect x="218" y="23" width="1" height="1" fill="#0099FF" />
<rect x="219" y="23" width="1" height="1" fill="#0099FF" />
<rect x="220" y="23" width="1" height="1" fill="#0099FF" />
<rect x="221" y="23" width="1" height="1" fill="#0099FF" />
<rect x="222" y="23" width="1" height="1" fill="#0099FF" />
<rect x="223" y="23" width="1" height="1" fill="#0099FF" />
<rect x="224" y="23" width="1" height="1" fill="#0099FF" />
<rect x="215" y="24" width="1" height="1" fill="#0099FF" />
<rect x="216" y="24" width="1" height="1" fill="#16AFFF" />
<rect x="217" y="24" width="1" height="1" fill="#16AFFF" />
<rect x="218" y="24" width="1" height="1" fill="#16AFFF" />
<rect x="219" y="24" width="1" height="1" fill="#27C0FF" />
<rect x="220" y="24" width="1" height="1" fill="#27C0FF" />
<rect x="221" y="24" width="1" height="1" fill="#27C0FF" />
<rect x="222" y="24" width="1" height="1" fill="#27C0FF" />
<rect x="223" y="24" width="1" height="1" fill="#27C0FF" />
<rect x="224" y="24" width="1" height="1" fill="#16AFFF" />
<rect x="225" y="24" width="1" height="1" fill="#16AFFF" />
<rect x="226" y="24" width="1" height="1" fill="#16AFFF" />
<rect x="227" y="24" width="1" height="1" fill="#16AFFF" />
<rect x="214" y="25" width="1" height="1" fill="#0099FF" />
<rect x="215" y="25" width="1" height="1" fill="#16AFFF" />
<rect x="216" y="25" width="1" height="1" fill="#16AFFF" />
<rect x="217" y="25" width="1" height="1" fill="#16AFFF" />
<rect x="218" y="25" width="1" height="1" fill="#16AFFF" />
<rect x="219" y="25" width="1" height="1" fill="#27C0FF" />
<rect x="220" y="25" width="1" height="1" fill="#27C0FF" />
<rect x="221" y="25" width="1" height="1" fill="#27C0FF" />
<rect x="222" y="25" width="1" height="1" fill="#27C0FF" />
<rect x="223" y="25" width="1" height="1" fill="#27C0FF" />
<rect x="224" y="25" width="1" height="1" fill="#27C0FF" />
<rect x="225" y="25" width="1" height="1" fill="#16AFFF" />
<rect x="226" y="25" width="1" height="1" fill="#27C0FF" />
<rect x="227" y="25" width="1" height="1" fill="#27C0FF" />
<rect x="228" y="25" width="1" height="1" fill="#16AFFF" />
<rect x="213" y="26" width="1" height="1" fill="#0099FF" />
<rect x="214" y="26" width="1" height="1" fill="#0099FF" />
<rect x="215" y="26" width="1" height="1" fill="#16AFFF" />
<rect x="216" y="26" width="1" height="1" fill="#16AFFF" />
<rect x="217" y="26" width="1" height="1" fill="#16AFFF" />
<rect x="218" y="26" width="1" height="1" fill="#16AFFF" />
<rect x="219" y="26" width="1" height="1" fill="#16AFFF" />
<rect x="220" y="26" width="1" height="1" fill="#16AFFF" />
<rect x="221" y="26" width="1" height="1" fill="#16AFFF" />
<rect x="222" y="26" width="1" height="1" fill="#0099FF" />
<rect x="223" y="26" width="1" height="1" fill="#16AFFF" />
<rect x="224" y="26" width="1" height="1" fill="#16AFFF" />
<rect x="225" y="26" width="1" height="1" fill="#27C0FF" />
<rect x="226" y="26" width="1" height="1" fill="#16AFFF" />
<rect x="227" y="26" width="1" height="1" fill="#27C0FF" />
<rect x="228" y="26" width="1" height="1" fill="#27C0FF" />
<rect x="229" y="26" width="1" height="1" fill="#16AFFF" />
<rect x="212" y="27" width="1" height="1" fill="#0099FF" />
<rect x="213" y="27" width="1" height="1" fill="#0099FF" />
<rect x="214" y="27" width="1" height="1" fill="#0099FF" />
<rect x="215" y="27" width="1" height="1" fill="#16AFFF" />
<rect x="216" y="27" width="1" height="1" fill="#16AFFF" />
<rect x="217" y="27" width="1" height="1" fill="#16AFFF" />
<rect x="218" y="27" width="1" height="1" fill="#27C0FF" />
<rect x="219" y="27" width="1" height="1" fill="#27C0FF" />
<rect x="220" y="27" width="1" height="1" fill="#27C0FF" />
<rect x="221" y="27" width="1" height="1" fill="#27C0FF" />
<rect x="222" y="27" width="1" height="1" fill="#27C0FF" />
<rect x="223" y="27" width="1" height="1" fill="#27C0FF" />
<rect x="224" y="27" width="1" height="1" fill="#27C0FF" />
<rect x="225" y="27" width="1" height="1" fill="#27C0FF" />
<rect x="226" y="27" width="1" height="1" fill="#16AFFF" />
<rect x="227" y="27" width="1" height="1" fill="#16AFFF" />
<rect x="228" y="27" width="1" height="1" fill="#27C0FF" />
<rect x="229" y="27" width="1" height="1" fill="#16AFFF" />
<rect x="230" y="27" width="1" height="1" fill="#16AFFF" />
<rect x="211" y="28" width="1" height="1" fill="#16AFFF" />
<rect x="212" y="28" width="1" height="1" fill="#16AFFF" />
<rect x="213" y="28" width="1" height="1" fill="#16AFFF" />
<rect x="214" y="28" width="1" height="1" fill="#16AFFF" />
<rect x="215" y="28" width="1" height="1" fill="#16AFFF" />
<rect x="216" y="28" width="1" height="1" fill="#16AFFF" />
<rect x="217" y="28" width="1" height="1" fill="#16AFFF" />
<rect x="218" y="28" width="1" height="1" fill="#16AFFF" />
<rect x="219" y="28" width="1" height="1" fill="#16AFFF" />
<rect x="220" y="28" width="1" height="1" fill="#27C0FF" />
<rect x="221" y="28" width="1" height="1" fill="#35CEFF" />
<rect x="222" y="28" width="1" height="1" fill="#27C0FF" />
<rect x="223" y="28" width="1" height="1" fill="#27C0FF" />
<rect x="224" y="28" width="1" height="1" fill="#27C0FF" />
<rect x="225" y="28" width="1" height="1" fill="#27C0FF" />
<rect x="226" y="28" width="1" height="1" fill="#16AFFF" />
<rect x="227" y="28" width="1" height="1" fill="#16AFFF" />
<rect x="228" y="28" width="1" height="1" fill="#0099FF" />
<rect x="229" y="28" width="1" height="1" fill="#16AFFF" />
<rect x="230" y="28" width="1" height="1" fill="#16AFFF" />
<rect x="231" y="28" width="1" height="1" fill="#16AFFF" />
<rect x="210" y="29" width="1" height="1" fill="#0099FF" />
<rect x="211" y="29" width="1" height="1" fill="#16AFFF" />
<rect x="212" y="29" width="1" height="1" fill="#16AFFF" />
<rect x="213" y="29" width="1" height="1" fill="#16AFFF" />
<rect x="214" y="29" width="1" height="1" fill="#16AFFF" />
<rect x="215" y="29" width="1" height="1" fill="#16AFFF" />
<rect x="216" y="29" width="1" height="1" fill="#16AFFF" />
<rect x="217" y="29" width="1" height="1" fill="#16AFFF" />
<rect x="218" y="29" width="1" height="1" fill="#27C0FF" />
<rect x="219" y="29" width="1" height="1" fill="#27C0FF" />
<rect x="220" y="29" width="1" height="1" fill="#27C0FF" />
<rect x="221" y="29" width="1" height="1" fill="#27C0FF" />
<rect x="222" y="29" width="1" height="1" fill="#16AFFF" />
<rect x="223" y="29" width="1" height="1" fill="#16AFFF" />
<rect x="224" y="29" width="1" height="1" fill="#16AFFF" />
<rect x="225" y="29" width="1" height="1" fill="#16AFFF" />
<rect x="226" y="29" width="1" height="1" fill="#27C0FF" />
<rect x="227" y="29" width="1" height="1" fill="#27C0FF" />
<rect x="228" y="29" width="1" height="1" fill="#27C0FF" />
<rect x="229" y="29" width="1" height="1" fill="#0099FF" />
<rect x="230" y="29" width="1" height="1" fill="#16AFFF" />
<rect x="231" y="29" width="1" height="1" fill="#16AFFF" />
<rect x="232" y="29" width="1" height="1" fill="#16AFFF" />
<rect x="209" y="30" width="1" height="1" fill="#0099FF" />
<rect x="210" y="30" width="1" height="1" fill="#0099FF" />
<rect x="211" y="30" width="1" height="1" fill="#0099FF" />
<rect x="212" y="30" width="1" height="1" fill="#0099FF" />
<rect x="213" y="30" width="1" height="1" fill="#16AFFF" />
<rect x="214" y="30" width="1" height="1" fill="#16AFFF" />
<rect x="215" y="30" width="1" height="1" fill="#16AFFF" />
<rect x="216" y="30" width="1" height="1" fill="#27C0FF" />
<rect x="217" y="30" width="1" height="1" fill="#27C0FF" />
<rect x="218" y="30" width="1" height="1" fill="#27C0FF" />
<rect x="219" y="30" width="1" height="1" fill="#27C0FF" />
<rect x="220" y="30" width="1" height="1" fill="#27C0FF" />
<rect x="221" y="30" width="1" height="1" fill="#16AFFF" />
<rect x="222" y="30" width="1" height="1" fill="#16AFFF" />
<rect x="223" y="30" width="1" height="1" fill="#16AFFF" />
<rect x="224" y="30" width="1" height="1" fill="#16AFFF" />
<rect x="225" y="30" width="1" height="1" fill="#16AFFF" />
<rect x="226" y="30" width="1" height="1" fill="#16AFFF" />
<rect x="227" y="30" width="1" height="1" fill="#27C0FF" />
<rect x="228" y="30" width="1" height="1" fill="#27C0FF" />
<rect x="229" y="30" width="1" height="1" fill="#27C0FF" />
<rect x="230" y="30" width="1" height="1" fill="#0099FF" />
<rect x="231" y="30" width="1" height="1" fill="#16AFFF" />
<rect x="232" y="30" width="1" height="1" fill="#16AFFF" />
<rect x="209" y="31" width="1" height="1" fill="#0099FF" />
<rect x="210" y="31" width="1" height="1" fill="#0099FF" />
<rect x="211" y="31" width="1" height="1" fill="#0099FF" />
<rect x="212" y="31" width="1" height="1" fill="#0099FF" />
<rect x="213" y="31" width="1" height="1" fill="#0099FF" />
<rect x="214" y="31" width="1" height="1" fill="#16AFFF" />
<rect x="215" y="31" width="1" height="1" fill="#16AFFF" />
<rect x="216" y="31" width="1" height="1" fill="#16AFFF" />
<rect x="217" y="31" width="1" height="1" fill="#16AFFF" />
<rect x="218" y="31" width="1" height="1" fill="#16AFFF" />
<rect x="219" y="31" width="1" height="1" fill="#0099FF" />
<rect x="220" y="31" width="1" height="1" fill="#0099FF" />
<rect x="221" y="31" width="1" height="1" fill="#0099FF" />
<rect x="222" y="31" width="1" height="1" fill="#27C0FF" />
<rect x="223" y="31" width="1" height="1" fill="#27C0FF" />
<rect x="224" y="31" width="1" height="1" fill="#27C0FF" />
<rect x="225" y="31" width="1" height="1" fill="#16AFFF" />
<rect x="226" y="31" width="1" height="1" fill="#16AFFF" />
<rect x="227" y="31" width="1" height="1" fill="#16AFFF" />
<rect x="228" y="31" width="1" height="1" fill="#27C0FF" />
<rect x="229" y="31" width="1" height="1" fill="#27C0FF" />
<rect x="230" y="31" width="1" height="1" fill="#16AFFF" />
<rect x="231" y="31" width="1" height="1" fill="#16AFFF" />
<rect x="232" y="31" width="1" height="1" fill="#16AFFF" />
<rect x="233" y="31" width="1" height="1" fill="#0099FF" />
<rect x="209" y="32" width="1" height="1" fill="#0099FF" />
<rect x="210" y="32" width="1" height="1" fill="#0099FF" />
<rect x="211" y="32" width="1" height="1" fill="#0099FF" />
<rect x="212" y="32" width="1" height="1" fill="#16AFFF" />
<rect x="213" y="32" width="1" height="1" fill="#16AFFF" />
<rect x="214" y="32" width="1" height="1" fill="#16AFFF" />
<rect x="215" y="32" width="1" height="1" fill="#16AFFF" />
<rect x="216" y="32" width="1" height="1" fill="#16AFFF" />
<rect x="217" y="32" width="1" height="1" fill="#0099FF" />
<rect x="218" y="32" width="1" height="1" fill="#0099FF" />
<rect x="219" y="32" width="1" height="1" fill="#0099FF" />
<rect x="220" y="32" width="1" height="1" fill="#16AFFF" />
<rect x="221" y="32" width="1" height="1" fill="#27C0FF" />
<rect x="222" y="32" width="1" height="1" fill="#27C0FF" />
<rect x="223" y="32" width="1" height="1" fill="#27C0FF" />
<rect x="224" y="32" width="1" height="1" fill="#16AFFF" />
<rect x="225" y="32" width="1" height="1" fill="#16AFFF" />
<rect x="226" y="32" width="1" height="1" fill="#16AFFF" />
<rect x="227" y="32" width="1" height="1" fill="#16AFFF" />
<rect x="228" y="32" width="1" height="1" fill="#27C0FF" />
<rect x="229" y="32" width="1" height="1" fill="#27C0FF" />
<rect x="230" y="32" width="1" height="1" fill="#16AFFF" />
<rect x="231" y="32" width="1" height="1" fill="#16AFFF" />
<rect x="232" y="32" width="1" height="1" fill="#0099FF" />
<rect x="233" y="32" width="1" height="1" fill="#0099FF" />
<rect x="208" y="33" width="1" height="1" fill="#0099FF" />
<rect x="209" y="33" width="1" height="1" fill="#0099FF" />
<rect x="210" y="33" width="1" height="1" fill="#0099FF" />
<rect x="211" y="33" width="1" height="1" fill="#27C0FF" />
<rect x="212" y="33" width="1" height="1" fill="#27C0FF" />
<rect x="213" y="33" width="1" height="1" fill="#27C0FF" />
<rect x="214" y="33" width="1" height="1" fill="#27C0FF" />
<rect x="215" y="33" width="1" height="1" fill="#16AFFF" />
<rect x="216" y="33" width="1" height="1" fill="#16AFFF" />
<rect x="217" y="33" width="1" height="1" fill="#0099FF" />
<rect x="218" y="33" width="1" height="1" fill="#16AFFF" />
<rect x="219" y="33" width="1" height="1" fill="#16AFFF" />
<rect x="220" y="33" width="1" height="1" fill="#27C0FF" />
<rect x="221" y="33" width="1" height="1" fill="#27C0FF" />
<rect x="222" y="33" width="1" height="1" fill="#27C0FF" />
<rect x="223" y="33" width="1" height="1" fill="#0099FF" />
<rect x="224" y="33" width="1" height="1" fill="#0099FF" />
<rect x="225" y="33" width="1" height="1" fill="#16AFFF" />
<rect x="226" y="33" width="1" height="1" fill="#16AFFF" />
<rect x="227" y="33" width="1" height="1" fill="#0099FF" />
<rect x="228" y="33" width="1" height="1" fill="#16AFFF" />
<rect x="229" y="33" width="1" height="1" fill="#16AFFF" />
<rect x="230" y="33" width="1" height="1" fill="#16AFFF" />
<rect x="231" y="33" width="1" height="1" fill="#16AFFF" />
<rect x="232" y="33" width="1" height="1" fill="#0099FF" />
<rect x="233" y="33" width="1" height="1" fill="#0099FF" />
<rect x="234" y="33" width="1" height="1" fill="#0099FF" />
<rect x="208" y="34" width="1" height="1" fill="#16AFFF" />
<rect x="209" y="34" width="1" height="1" fill="#27C0FF" />
<rect x="210" y="34" width="1" height="1" fill="#27C0FF" />
<rect x="211" y="34" width="1" height="1" fill="#27C0FF" />
<rect x="212" y="34" width="1" height="1" fill="#27C0FF" />
<rect x="213" y="34" width="1" height="1" fill="#16AFFF" />
<rect x="214" y="34" width="1" height="1" fill="#16AFFF" />
<rect x="215" y="34" width="1" height="1" fill="#16AFFF" />
<rect x="216" y="34" width="1" height="1" fill="#16AFFF" />
<rect x="217" y="34" width="1" height="1" fill="#16AFFF" />
<rect x="218" y="34" width="1" height="1" fill="#27C0FF" />
<rect x="219" y="34" width="1" height="1" fill="#35CEFF" />
<rect x="220" y="34" width="1" height="1" fill="#35CEFF" />
<rect x="221" y="34" width="1" height="1" fill="#27C0FF" />
<rect x="222" y="34" width="1" height="1" fill="#16AFFF" />
<rect x="223" y="34" width="1" height="1" fill="#16AFFF" />
<rect x="224" y="34" width="1" height="1" fill="#27C0FF" />
<rect x="225" y="34" width="1" height="1" fill="#27C0FF" />
<rect x="226" y="34" width="1" height="1" fill="#27C0FF" />
<rect x="227" y="34" width="1" height="1" fill="#16AFFF" />
<rect x="228" y="34" width="1" height="1" fill="#16AFFF" />
<rect x="229" y="34" width="1" height="1" fill="#16AFFF" />
<rect x="230" y="34" width="1" height="1" fill="#0099FF" />
<rect x="231" y="34" width="1" height="1" fill="#0099FF" />
<rect x="232" y="34" width="1" height="1" fill="#0099FF" />
<rect x="233" y="34" width="1" height="1" fill="#0099FF" />
<rect x="234" y="34" width="1" height="1" fill="#0099FF" />
<rect x="208" y="35" width="1" height="1" fill="#16AFFF" />
<rect x="209" y="35" width="1" height="1" fill="#27C0FF" />
<rect x="210" y="35" width="1" height="1" fill="#27C0FF" />
<rect x="211" y="35" width="1" height="1" fill="#27C0FF" />
<rect x="212" y="35" width="1" height="1" fill="#0099FF" />
<rect x="213" y="35" width="1" height="1" fill="#0099FF" />
<rect x="214" y="35" width="1" height="1" fill="#0099FF" />
<rect x="215" y="35" width="1" height="1" fill="#27C0FF" />
<rect x="216" y="35" width="1" height="1" fill="#27C0FF" />
<rect x="217" y="35" width="1" height="1" fill="#27C0FF" />
<rect x="218" y="35" width="1" height="1" fill="#35CEFF" />
<rect x="219" y="35" width="1" height="1" fill="#35CEFF" />
<rect x="220" y="35" width="1" height="1" fill="#35CEFF" />
<rect x="221" y="35" width="1" height="1" fill="#27C0FF" />
<rect x="222" y="35" width="1" height="1" fill="#27C0FF" />
<rect x="223" y="35" width="1" height="1" fill="#27C0FF" />
<rect x="224" y="35" width="1" height="1" fill="#27C0FF" />
<rect x="225" y="35" width="1" height="1" fill="#27C0FF" />
<rect x="226" y="35" width="1" height="1" fill="#16AFFF" />
<rect x="227" y="35" width="1" height="1" fill="#16AFFF" />
<rect x="228" y="35" width="1" height="1" fill="#16AFFF" />
<rect x="229" y="35" width="1" height="1" fill="#0099FF" />
<rect x="230" y="35" width="1" height="1" fill="#0099FF" />
<rect x="231" y="35" width="1" height="1" fill="#0099FF" />
<rect x="232" y="35" width="1" height="1" fill="#0099FF" />
<rect x="233" y="35" width="1" height="1" fill="#0099FF" />
<rect x="234" y="35" width="1" height="1" fill="#0099FF" />
<rect x="208" y="36" width="1" height="1" fill="#0099FF" />
<rect x="209" y="36" width="1" height="1" fill="#16AFFF" />
<rect x="210" y="36" width="1" height="1" fill="#16AFFF" />
<rect x="211" y="36" width="1" height="1" fill="#16AFFF" />
<rect x="212" y="36" width="1" height="1" fill="#16AFFF" />
<rect x="213" y="36" width="1" height="1" fill="#27C0FF" />
<rect x="214" y="36" width="1" height="1" fill="#27C0FF" />
<rect x="215" y="36" width="1" height="1" fill="#27C0FF" />
<rect x="216" y="36" width="1" height="1" fill="#27C0FF" />
<rect x="217" y="36" width="1" height="1" fill="#27C0FF" />
<rect x="218" y="36" width="1" height="1" fill="#27C0FF" />
<rect x="219" y="36" width="1" height="1" fill="#27C0FF" />
<rect x="220" y="36" width="1" height="1" fill="#27C0FF" />
<rect x="221" y="36" width="1" height="1" fill="#27C0FF" />
<rect x="222" y="36" width="1" height="1" fill="#27C0FF" />
<rect x="223" y="36" width="1" height="1" fill="#27C0FF" />
<rect x="224" y="36" width="1" height="1" fill="#27C0FF" />
<rect x="225" y="36" width="1" height="1" fill="#0099FF" />
<rect x="226" y="36" width="1" height="1" fill="#0099FF" />
<rect x="227" y="36" width="1" height="1" fill="#0099FF" />
<rect x="228" y="36" width="1" height="1" fill="#0099FF" />
<rect x="229" y="36" width="1" height="1" fill="#0099FF" />
<rect x="230" y="36" width="1" height="1" fill="#0099FF" />
<rect x="231" y="36" width="1" height="1" fill="#0099FF" />
<rect x="232" y="36" width="1" height="1" fill="#0099FF" />
<rect x="233" y="36" width="1" height="1" fill="#0099FF" />
<rect x="234" y="36" width="1" height="1" fill="#0099FF" />
<rect x="208" y="37" width="1" height="1" fill="#0099FF" />
<rect x="209" y="37" width="1" height="1" fill="#16AFFF" />
<rect x="210" y="37" width="1" height="1" fill="#16AFFF" />
<rect x="211" y="37" width="1" height="1" fill="#16AFFF" />
<rect x="212" y="37" width="1" height="1" fill="#27C0FF" />
<rect x="213" y="37" width="1" height="1" fill="#27C0FF" />
<rect x="214" y="37" width="1" height="1" fill="#27C0FF" />
<rect x="215" y="37" width="1" height="1" fill="#27C0FF" />
<rect x="216" y="37" width="1" height="1" fill="#27C0FF" />
<rect x="217" y="37" width="1" height="1" fill="#27C0FF" />
<rect x="218" y="37" width="1" height="1" fill="#16AFFF" />
<rect x="219" y="37" width="1" height="1" fill="#0099FF" />
<rect x="220" y="37" width="1" height="1" fill="#0099FF" />
<rect x="221" y="37" width="1" height="1" fill="#0099FF" />
<rect x="222" y="37" width="1" height="1" fill="#16AFFF" />
<rect x="223" y="37" width="1" height="1" fill="#16AFFF" />
<rect x="224" y="37" width="1" height="1" fill="#0099FF" />
<rect x="225" y="37" width="1" height="1" fill="#0099FF" />
<rect x="226" y="37" width="1" height="1" fill="#0099FF" />
<rect x="227" y="37" width="1" height="1" fill="#0099FF" />
<rect x="228" y="37" width="1" height="1" fill="#0099FF" />
<rect x="229" y="37" width="1" height="1" fill="#0099FF" />
<rect x="230" y="37" width="1" height="1" fill="#0099FF" />
<rect x="231" y="37" width="1" height="1" fill="#0099FF" />
<rect x="232" y="37" width="1" height="1" fill="#0099FF" />
<rect x="233" y="37" width="1" height="1" fill="#0099FF" />
<rect x="234" y="37" width="1" height="1" fill="#0099FF" />
<rect x="208" y="38" width="1" height="1" fill="#0099FF" />
<rect x="209" y="38" width="1" height="1" fill="#0099FF" />
<rect x="210" y="38" width="1" height="1" fill="#16AFFF" />
<rect x="211" y="38" width="1" height="1" fill="#16AFFF" />
<rect x="212" y="38" width="1" height="1" fill="#16AFFF" />
<rect x="213" y="38" width="1" height="1" fill="#16AFFF" />
<rect x="214" y="38" width="1" height="1" fill="#16AFFF" />
<rect x="215" y="38" width="1" height="1" fill="#16AFFF" />
<rect x="216" y="38" width="1" height="1" fill="#16AFFF" />
<rect x="217" y="38" width="1" height="1" fill="#27C0FF" />
<rect x="218" y="38" width="1" height="1" fill="#16AFFF" />
<rect x="219" y="38" width="1" height="1" fill="#16AFFF" />
<rect x="220" y="38" width="1" height="1" fill="#0099FF" />
<rect x="221" y="38" width="1" height="1" fill="#0099FF" />
<rect x="222" y="38" width="1" height="1" fill="#0099FF" />
<rect x="223" y="38" width="1" height="1" fill="#0099FF" />
<rect x="224" y="38" width="1" height="1" fill="#0099FF" />
<rect x="225" y="38" width="1" height="1" fill="#0099FF" />
<rect x="226" y="38" width="1" height="1" fill="#0099FF" />
<rect x="227" y="38" width="1" height="1" fill="#0099FF" />
<rect x="228" y="38" width="1" height="1" fill="#0099FF" />
<rect x="229" y="38" width="1" height="1" fill="#0099FF" />
<rect x="230" y="38" width="1" height="1" fill="#0099FF" />
<rect x="231" y="38" width="1" height="1" fill="#0099FF" />
<rect x="232" y="38" width="1" height="1" fill="#0099FF" />
<rect x="233" y="38" width="1" height="1" fill="#0099FF" />
<rect x="234" y="38" width="1" height="1" fill="#0099FF" />
<rect x="209" y="39" width="1" height="1" fill="#0099FF" />
<rect x="210" y="39" width="1" height="1" fill="#16AFFF" />
<rect x="211" y="39" width="1" height="1" fill="#16AFFF" />
<rect x="212" y="39" width="1" height="1" fill="#27C0FF" />
<rect x="213" y="39" width="1" height="1" fill="#16AFFF" />
<rect x="214" y="39" width="1" height="1" fill="#16AFFF" />
<rect x="215" y="39" width="1" height="1" fill="#16AFFF" />
<rect x="216" y="39" width="1" height="1" fill="#16AFFF" />
<rect x="217" y="39" width="1" height="1" fill="#16AFFF" />
<rect x="218" y="39" width="1" height="1" fill="#16AFFF" />
<rect x="219" y="39" width="1" height="1" fill="#16AFFF" />
<rect x="220" y="39" width="1" height="1" fill="#16AFFF" />
<rect x="221" y="39" width="1" height="1" fill="#16AFFF" />
<rect x="222" y="39" width="1" height="1" fill="#0099FF" />
<rect x="223" y="39" width="1" height="1" fill="#0099FF" />
<rect x="224" y="39" width="1" height="1" fill="#0099FF" />
<rect x="225" y="39" width="1" height="1" fill="#0099FF" />
<rect x="226" y="39" width="1" height="1" fill="#0099FF" />
<rect x="227" y="39" width="1" height="1" fill="#0099FF" />
<rect x="228" y="39" width="1" height="1" fill="#0099FF" />
<rect x="229" y="39" width="1" height="1" fill="#0099FF" />
<rect x="230" y="39" width="1" height="1" fill="#0099FF" />
<rect x="231" y="39" width="1" height="1" fill="#0099FF" />
<rect x="232" y="39" width="1" height="1" fill="#0099FF" />
<rect x="233" y="39" width="1" height="1" fill="#0099FF" />
<rect x="209" y="40" width="1" height="1" fill="#0099FF" />
<rect x="210" y="40" width="1" height="1" fill="#0099FF" />
<rect x="211" y="40" width="1" height="1" fill="#16AFFF" />
<rect x="212" y="40" width="1" height="1" fill="#16AFFF" />
<rect x="213" y="40" width="1" height="1" fill="#16AFFF" />
<rect x="214" y="40" width="1" height="1" fill="#16AFFF" />
<rect x="215" y="40" width="1" height="1" fill="#16AFFF" />
<rect x="216" y="40" width="1" height="1" fill="#16AFFF" />
<rect x="217" y="40" width="1" height="1" fill="#16AFFF" />
<rect x="218" y="40" width="1" height="1" fill="#16AFFF" />
<rect x="219" y="40" width="1" height="1" fill="#16AFFF" />
<rect x="220" y="40" width="1" height="1" fill="#16AFFF" />
<rect x="221" y="40" width="1" height="1" fill="#16AFFF" />
<rect x="222" y="40" width="1" height="1" fill="#16AFFF" />
<rect x="223" y="40" width="1" height="1" fill="#16AFFF" />
<rect x="224" y="40" width="1" height="1" fill="#0099FF" />
<rect x="225" y="40" width="1" height="1" fill="#0099FF" />
<rect x="226" y="40" width="1" height="1" fill="#0099FF" />
<rect x="227" y="40" width="1" height="1" fill="#0099FF" />
<rect x="228" y="40" width="1" height="1" fill="#0099FF" />
<rect x="229" y="40" width="1" height="1" fill="#0099FF" />
<rect x="230" y="40" width="1" height="1" fill="#0099FF" />
<rect x="231" y="40" width="1" height="1" fill="#0099FF" />
<rect x="232" y="40" width="1" height="1" fill="#0099FF" />
<rect x="233" y="40" width="1" height="1" fill="#0099FF" />
<rect x="209" y="41" width="1" height="1" fill="#0099FF" />
<rect x="210" y="41" width="1" height="1" fill="#0099FF" />
<rect x="211" y="41" width="1" height="1" fill="#16AFFF" />
<rect x="212" y="41" width="1" height="1" fill="#16AFFF" />
<rect x="213" y="41" width="1" height="1" fill="#16AFFF" />
<rect x="214" y="41" width="1" height="1" fill="#16AFFF" />
<rect x="215" y="41" width="1" height="1" fill="#16AFFF" />
<rect x="216" y="41" width="1" height="1" fill="#16AFFF" />
<rect x="217" y="41" width="1" height="1" fill="#16AFFF" />
<rect x="218" y="41" width="1" height="1" fill="#16AFFF" />
<rect x="219" y="41" width="1" height="1" fill="#16AFFF" />
<rect x="220" y="41" width="1" height="1" fill="#16AFFF" />
<rect x="221" y="41" width="1" height="1" fill="#16AFFF" />
<rect x="222" y="41" width="1" height="1" fill="#16AFFF" />
<rect x="223" y="41" width="1" height="1" fill="#16AFFF" />
<rect x="224" y="41" width="1" height="1" fill="#0099FF" />
<rect x="225" y="41" width="1" height="1" fill="#0099FF" />
<rect x="226" y="41" width="1" height="1" fill="#0099FF" />
<rect x="227" y="41" width="1" height="1" fill="#0099FF" />
<rect x="228" y="41" width="1" height="1" fill="#0099FF" />
<rect x="229" y="41" width="1" height="1" fill="#0099FF" />
<rect x="230" y="41" width="1" height="1" fill="#0099FF" />
<rect x="231" y="41" width="1" height="1" fill="#0099FF" />
<rect x="232" y="41" width="1" height="1" fill="#0099FF" />
<rect x="233" y="41" width="1" height="1" fill="#0099FF" />
<rect x="210" y="42" width="1" height="1" fill="#0099FF" />
<rect x="211" y="42" width="1" height="1" fill="#0099FF" />
<rect x="212" y="42" width="1" height="1" fill="#16AFFF" />
<rect x="213" y="42" width="1" height="1" fill="#16AFFF" />
<rect x="214" y="42" width="1" height="1" fill="#16AFFF" />
<rect x="215" y="42" width="1" height="1" fill="#0099FF" />
<rect x="216" y="42" width="1" height="1" fill="#0099FF" />
<rect x="217" y="42" width="1" height="1" fill="#0099FF" />
<rect x="218" y="42" width="1" height="1" fill="#0099FF" />
<rect x="219" y="42" width="1" height="1" fill="#0099FF" />
<rect x="220" y="42" width="1" height="1" fill="#0099FF" />
<rect x="221" y="42" width="1" height="1" fill="#0099FF" />
<rect x="222" y="42" width="1" height="1" fill="#0099FF" />
<rect x="223" y="42" width="1" height="1" fill="#0099FF" />
<rect x="224" y="42" width="1" height="1" fill="#0099FF" />
<rect x="225" y="42" width="1" height="1" fill="#0099FF" />
<rect x="226" y="42" width="1" height="1" fill="#0099FF" />
<rect x="227" y="42" width="1" height="1" fill="#0099FF" />
<rect x="228" y="42" width="1" height="1" fill="#0099FF" />
<rect x="229" y="42" width="1" height="1" fill="#0099FF" />
<rect x="230" y="42" width="1" height="1" fill="#0099FF" />
<rect x="231" y="42" width="1" height="1" fill="#0099FF" />
<rect x="232" y="42" width="1" height="1" fill="#0099FF" />
<rect x="211" y="43" width="1" height="1" fill="#0099FF" />
<rect x="212" y="43" width="1" height="1" fill="#0099FF" />
<rect x="213" y="43" width="1" height="1" fill="#0099FF" />
<rect x="214" y="43" width="1" height="1" fill="#0099FF" />
<rect x="215" y="43" width="1" height="1" fill="#0099FF" />
<rect x="216" y="43" width="1" height="1" fill="#0099FF" />
<rect x="217" y="43" width="1" height="1" fill="#0099FF" />
<rect x="218" y="43" width="1" height="1" fill="#0099FF" />
<rect x="219" y="43" width="1" height="1" fill="#0099FF" />
<rect x="220" y="43" width="1" height="1" fill="#0099FF" />
<rect x="221" y="43" width="1" height="1" fill="#0099FF" />
<rect x="222" y="43" width="1" height="1" fill="#0099FF" />
<rect x="223" y="43" width="1" height="1" fill="#0099FF" />
<rect x="224" y="43" width="1" height="1" fill="#0099FF" />
<rect x="225" y="43" width="1" height="1" fill="#0099FF" />
<rect x="226" y="43" width="1" height="1" fill="#0099FF" />
<rect x="227" y="43" width="1" height="1" fill="#0099FF" />
<rect x="228" y="43" width="1" height="1" fill="#0099FF" />
<rect x="229" y="43" width="1" height="1" fill="#0099FF" />
<rect x="230" y="43" width="1" height="1" fill="#0099FF" />
<rect x="231" y="43" width="1" height="1" fill="#0099FF" />
<rect x="212" y="44" width="1" height="1" fill="#0099FF" />
<rect x="213" y="44" width="1" height="1" fill="#0099FF" />
<rect x="214" y="44" width="1" height="1" fill="#0099FF" />
<rect x="215" y="44" width="1" height="1" fill="#0099FF" />
<rect x="216" y="44" width="1" height="1" fill="#0099FF" />
<rect x="217" y="44" width="1" height="1" fill="#0099FF" />
<rect x="218" y="44" width="1" height="1" fill="#0099FF" />
<rect x="219" y="44" width="1" height="1" fill="#0099FF" />
<rect x="220" y="44" width="1" height="1" fill="#0099FF" />
<rect x="221" y="44" width="1" height="1" fill="#0099FF" />
<rect x="222" y="44" width="1" height="1" fill="#0099FF" />
<rect x="223" y="44" width="1" height="1" fill="#0099FF" />
<rect x="224" y="44" width="1" height="1" fill="#0099FF" />
<rect x="225" y="44" width="1" height="1" fill="#0099FF" />
<rect x="226" y="44" width="1" height="1" fill="#0099FF" />
<rect x="227" y="44" width="1" height="1" fill="#0099FF" />
<rect x="228" y="44" width="1" height="1" fill="#0099FF" />
<rect x="229" y="44" width="1" height="1" fill="#0099FF" />
<rect x="230" y="44" width="1" height="1" fill="#0099FF" />
<rect x="213" y="45" width="1" height="1" fill="#0099FF" />
<rect x="214" y="45" width="1" height="1" fill="#0099FF" />
<rect x="215" y="45" width="1" height="1" fill="#0099FF" />
<rect x="216" y="45" width="1" height="1" fill="#0099FF" />
<rect x="217" y="45" width="1" height="1" fill="#0099FF" />
<rect x="218" y="45" width="1" height="1" fill="#0099FF" />
<rect x="219" y="45" width="1" height="1" fill="#0099FF" />
<rect x="220" y="45" width="1" height="1" fill="#0099FF" />
<rect x="221" y="45" width="1" height="1" fill="#0099FF" />
<rect x="222" y="45" width="1" height="1" fill="#0099FF" />
<rect x="223" y="45" width="1" height="1" fill="#0099FF" />
<rect x="224" y="45" width="1" height="1" fill="#0099FF" />
<rect x="225" y="45" width="1" height="1" fill="#0099FF" />
<rect x="226" y="45" width="1" height="1" fill="#0099FF" />
<rect x="227" y="45" width="1" height="1" fill="#0099FF" />
<rect x="228" y="45" width="1" height="1" fill="#0099FF" />
<rect x="229" y="45" width="1" height="1" fill="#0099FF" />
<rect x="214" y="46" width="1" height="1" fill="#0099FF" />
<rect x="215" y="46" width="1" height="1" fill="#0099FF" />
<rect x="216" y="46" width="1" height="1" fill="#0099FF" />
<rect x="217" y="46" width="1" height="1" fill="#0099FF" />
<rect x="218" y="46" width="1" height="1" fill="#0099FF" />
<rect x="219" y="46" width="1" height="1" fill="#0099FF" />
<rect x="220" y="46" width="1" height="1" fill="#0099FF" />
<rect x="221" y="46" width="1" height="1" fill="#0099FF" />
<rect x="222" y="46" width="1" height="1" fill="#0099FF" />
<rect x="223" y="46" width="1" height="1" fill="#0099FF" />
<rect x="224" y="46" width="1" height="1" fill="#0099FF" />
<rect x="225" y="46" width="1" height="1" fill="#0099FF" />
<rect x="226" y="46" width="1" height="1" fill="#0099FF" />
<rect x="227" y="46" width="1" height="1" fill="#0099FF" />
<rect x="228" y="46" width="1" height="1" fill="#0099FF" />
<rect x="215" y="47" width="1" height="1" fill="#0099FF" />
<rect x="216" y="47" width="1" height="1" fill="#0099FF" />
<rect x="217" y="47" width="1" height="1" fill="#0099FF" />
<rect x="218" y="47" width="1" height="1" fill="#0099FF" />
<rect x="219" y="47" width="1" height="1" fill="#0099FF" />
<rect x="220" y="47" width="1" height="1" fill="#0099FF" />
<rect x="221" y="47" width="1" height="1" fill="#0099FF" />
<rect x="222" y="47" width="1" height="1" fill="#0099FF" />
<rect x="223" y="47" width="1" height="1" fill="#0099FF" />
<rect x="224" y="47" width="1" height="1" fill="#0099FF" />
<rect x="225" y="47" width="1" height="1" fill="#0099FF" />
<rect x="226" y="47" width="1" height="1" fill="#0099FF" />
<rect x="227" y="47" width="1" height="1" fill="#0099FF" />
<rect x="218" y="48" width="1" height="1" fill="#0099FF" />
<rect x="219" y="48" width="1" height="1" fill="#0099FF" />
<rect x="220" y="48" width="1" height="1" fill="#0099FF" />
<rect x="221" y="48" width="1" height="1" fill="#0099FF" />
<rect x="222" y="48" width="1" height="1" fill="#0099FF" />
<rect x="223" y="48" width="1" height="1" fill="#0099FF" />
<rect x="224" y="48" width="1" height="1" fill="#0099FF" />
</svg>