<?xml version="1.0" encoding="UTF-8" ?>
<svg version="1.1" width="354" height="189" xmlns="http://www.w3.org/2000/svg" shape-rendering="crispEdges">
<rect x="316" y="33" width="1" height="1" fill="#0099FF" />
<rect x="317" y="33" width="1" height="1" fill="#0099FF" />
<rect x="318" y="33" width="1" height="1" fill="#0099FF" />
<rect x="319" y="33" width="1" height="1" fill="#0099FF" />
<rect x="320" y="33" width="1" height="1" fill="#0099FF" />
<rect x="321" y="33" width="1" height="1" fill="#0099FF" />
<rect x="322" y="33" width="1" height="1" fill="#0099FF" />
<rect x="313" y="34" width="1" height="1" fill="#0099FF" />
<rect x="314" y="34" width="1" height="1" fill="#16AFFF" />
<rect x="315" y="34" width="1" height="1" fill="#16AFFF" />
<rect x="316" y="34" width="1" height="1" fill="#16AFFF" />
<rect x="317" y="34" width="1" height="1" fill="#27C0FF" />
<rect x="318" y="34" width="1" height="1" fill="#27C0FF" />
<rect x="319" y="34" width="1" height="1" fill="#27C0FF" />
<rect x="320" y="34" width="1" height="1" fill="#27C0FF" />
<rect x="321" y="34" width="1" height="1" fill="#27C0FF" />
<rect x="322" y="34" width="1" height="1" fill="#16AFFF" />
<rect x="323" y="34" width="1" height="1" fill="#16AFFF" />
<rect x="324" y="34" width="1" height="1" fill="#16AFFF" />
<rect x="325" y="34" width="1" height="1" fill="#16AFFF" />
<rect x="312" y="35" width="1" height="1" fill="#0099FF" />
<rect x="313" y="35" width="1" height="1" fill="#16AFFF" />
<rect x="314" y="35" width="1" height="1" fill="#16AFFF" />
<rect x="315" y="35" width="1" height="1" fill="#16AFFF" />
<rect x="316" y="35" width="1" height="1" fill="#16AFFF" />
<rect x="317" y="35" width="1" height="1" fill="#27C0FF" />
<rect x="318" y="35" width="1" height="1" fill="#27C0FF" />
<rect x="319" y="35" width="1" height="1" fill="#27C0FF" />
<rect x="320" y="35" width="1" height="1" fill="#27C0FF" />
<rect x="321" y="35" width="1" height="1" fill="#27C0FF" />
<rect x="322" y="35" width="1" height="1" fill="#27C0FF" />
<rect x="323" y="35" width="1" height="1" fill="#16AFFF" />
<rect x="324" y="35" width="1" height="1" fill="#27C0FF" />
<rect x="325" y="35" width="1" height="1" fill="#27C0FF" />
<rect x="326" y="35" width="1" height="1" fill="#16AFFF" />
<rect x="311" y="36" width="1" height="1" fill="#0099FF" />
<rect x="312" y="36" width="1" height="1" fill="#0099FF" />
<rect x="313" y="36" width="1" height="1" fill="#16AFFF" />
<rect x="314" y="36" width="1" height="1" fill="#16AFFF" />
<rect x="315" y="36" width="1" height="1" fill="#16AFFF" />
<rect x="316" y="36" width="1" height="1" fill="#16AFFF" />
<rect x="317" y="36" width="1" height="1" fill="#16AFFF" />
<rect x="318" y="36" width="1" height="1" fill="#16AFFF" />
<rect x="319" y="36" width="1" height="1" fill="#16AFFF" />
<rect x="320" y="36" width="1" height="1" fill="#0099FF" />
<rect x="321" y="36" width="1" height="1" fill="#16AFFF" />
<rect x="322" y="36" width="1" height="1" fill="#16AFFF" />
<rect x="323" y="36" width="1" height="1" fill="#27C0FF" />
<rect x="324" y="36" width="1" height="1" fill="#16AFFF" />
<rect x="325" y="36" width="1" height="1" fill="#27C0FF" />
<rect x="326" y="36" width="1" height="1" fill="#27C0FF" />
<rect x="327" y="36" width="1" height="1" fill="#16AFFF" />
<rect x="310" y="37" width="1" height="1" fill="#0099FF" />
<rect x="311" y="37" width="1" height="1" fill="#0099FF" />
<rect x="312" y="37" width="1" height="1" fill="#0099FF" />
<rect x="313" y="37" width="1" height="1" fill="#16AFFF" />
<rect x="314" y="37" width="1" height="1" fill="#16AFFF" />
<rect x="315" y="37" width="1" height="1" fill="#16AFFF" />
<rect x="316" y="37" width="1" height="1" fill="#27C0FF" />
<rect x="317" y="37" width="1" height="1" fill="#27C0FF" />
<rect x="318" y="37" width="1" height="1" fill="#27C0FF" />
<rect x="319" y="37" width="1" height="1" fill="#27C0FF" />
<rect x="320" y="37" width="1" height="1" fill="#27C0FF" />
<rect x="321" y="37" width="1" height="1" fill="#27C0FF" />
<rect x="322" y="37" width="1" height="1" fill="#27C0FF" />
<rect x="323" y="37" width="1" height="1" fill="#27C0FF" />
<rect x="324" y="37" width="1" height="1" fill="#16AFFF" />
<rect x="325" y="37" width="1" height="1" fill="#16AFFF" />
<rect x="326" y="37" width="1" height="1" fill="#27C0FF" />
<rect x="327" y="37" width="1" height="1" fill="#16AFFF" />
<rect x="328" y="37" width="1" height="1" fill="#16AFFF" />
<rect x="309" y="38" width="1" height="1" fill="#16AFFF" />
<rect x="310" y="38" width="1" height="1" fill="#16AFFF" />
<rect x="311" y="38" width="1" height="1" fill="#16AFFF" />
<rect x="312" y="38" width="1" height="1" fill="#16AFFF" />
<rect x="313" y="38" width="1" height="1" fill="#16AFFF" />
<rect x="314" y="38" width="1" height="1" fill="#16AFFF" />
<rect x="315" y="38" width="1" height="1" fill="#16AFFF" />
<rect x="316" y="38" width="1" height="1" fill="#16AFFF" />
<rect x="317" y="38" width="1" height="1" fill="#16AFFF" />
<rect x="318" y="38" width="1" height="1" fill="#27C0FF" />
<rect x="319" y="38" width="1" height="1" fill="#35CEFF" />
<rect x="320" y="38" width="1" height="1" fill="#27C0FF" />
<rect x="321" y="38" width="1" height="1" fill="#27C0FF" />
<rect x="322" y="38" width="1" height="1" fill="#27C0FF" />
<rect x="323" y="38" width="1" height="1" fill="#27C0FF" />
<rect x="324" y="38" width="1" height="1" fill="#16AFFF" />
<rect x="325" y="38" width="1" height="1" fill="#16AFFF" />
<rect x="326" y="38" width="1" height="1" fill="#0099FF" />
<rect x="327" y="38" width="1" height="1" fill="#16AFFF" />
<rect x="328" y="38" width="1" height="1" fill="#16AFFF" />
<rect x="329" y="38" width="1" height="1" fill="#16AFFF" />
<rect x="308" y="39" width="1" height="1" fill="#0099FF" />
<rect x="309" y="39" width="1" height="1" fill="#16AFFF" />
<rect x="310" y="39" width="1" height="1" fill="#16AFFF" />
<rect x="311" y="39" width="1" height="1" fill="#16AFFF" />
<rect x="312" y="39" width="1" height="1" fill="#16AFFF" />
<rect x="313" y="39" width="1" height="1" fill="#16AFFF" />
<rect x="314" y="39" width="1" height="1" fill="#16AFFF" />
<rect x="315" y="39" width="1" height="1" fill="#16AFFF" />
<rect x="316" y="39" width="1" height="1" fill="#27C0FF" />
<rect x="317" y="39" width="1" height="1" fill="#27C0FF" />
<rect x="318" y="39" width="1" height="1" fill="#27C0FF" />
<rect x="319" y="39" width="1" height="1" fill="#27C0FF" />
<rect x="320" y="39" width="1" height="1" fill="#16AFFF" />
<rect x="321" y="39" width="1" height="1" fill="#16AFFF" />
<rect x="322" y="39" width="1" height="1" fill="#16AFFF" />
<rect x="323" y="39" width="1" height="1" fill="#16AFFF" />
<rect x="324" y="39" width="1" height="1" fill="#27C0FF" />
<rect x="325" y="39" width="1" height="1" fill="#27C0FF" />
<rect x="326" y="39" width="1" height="1" fill="#27C0FF" />
<rect x="327" y="39" width="1" height="1" fill="#0099FF" />
<rect x="328" y="39" width="1" height="1" fill="#16AFFF" />
<rect x="329" y="39" width="1" height="1" fill="#16AFFF" />
<rect x="330" y="39" width="1" height="1" fill="#16AFFF" />
<rect x="307" y="40" width="1" height="1" fill="#0099FF" />
<rect x="308" y="40" width="1" height="1" fill="#0099FF" />
<rect x="309" y="40" width="1" height="1" fill="#0099FF" />
<rect x="310" y="40" width="1" height="1" fill="#0099FF" />
<rect x="311" y="40" width="1" height="1" fill="#16AFFF" />
<rect x="312" y="40" width="1" height="1" fill="#16AFFF" />
<rect x="313" y="40" width="1" height="1" fill="#16AFFF" />
<rect x="314" y="40" width="1" height="1" fill="#27C0FF" />
<rect x="315" y="40" width="1" height="1" fill="#27C0FF" />
<rect x="316" y="40" width="1" height="1" fill="#27C0FF" />
<rect x="317" y="40" width="1" height="1" fill="#27C0FF" />
<rect x="318" y="40" width="1" height="1" fill="#27C0FF" />
<rect x="319" y="40" width="1" height="1" fill="#16AFFF" />
<rect x="320" y="40" width="1" height="1" fill="#16AFFF" />
<rect x="321" y="40" width="1" height="1" fill="#16AFFF" />
<rect x="322" y="40" width="1" height="1" fill="#16AFFF" />
<rect x="323" y="40" width="1" height="1" fill="#16AFFF" />
<rect x="324" y="40" width="1" height="1" fill="#16AFFF" />
<rect x="325" y="40" width="1" height="1" fill="#27C0FF" />
<rect x="326" y="40" width="1" height="1" fill="#27C0FF" />
<rect x="327" y="40" width="1" height="1" fill="#27C0FF" />
<rect x="328" y="40" width="1" height="1" fill="#0099FF" />
<rect x="329" y="40" width="1" height="1" fill="#16AFFF" />
<rect x="330" y="40" width="1" height="1" fill="#16AFFF" />
<rect x="307" y="41" width="1" height="1" fill="#0099FF" />
<rect x="308" y="41" width="1" height="1" fill="#0099FF" />
<rect x="309" y="41" width="1" height="1" fill="#0099FF" />
<rect x="310" y="41" width="1" height="1" fill="#0099FF" />
<rect x="311" y="41" width="1" height="1" fill="#0099FF" />
<rect x="312" y="41" width="1" height="1" fill="#16AFFF" />
<rect x="313" y="41" width="1" height="1" fill="#16AFFF" />
<rect x="314" y="41" width="1" height="1" fill="#16AFFF" />
<rect x="315" y="41" width="1" height="1" fill="#16AFFF" />
<rect x="316" y="41" width="1" height="1" fill="#16AFFF" />
<rect x="317" y="41" width="1" height="1" fill="#0099FF" />
<rect x="318" y="41" width="1" height="1" fill="#0099FF" />
<rect x="319" y="41" width="1" height="1" fill="#0099FF" />
<rect x="320" y="41" width="1" height="1" fill="#27C0FF" />
<rect x="321" y="41" width="1" height="1" fill="#27C0FF" />
<rect x="322" y="41" width="1" height="1" fill="#27C0FF" />
<rect x="323" y="41" width="1" height="1" fill="#16AFFF" />
<rect x="324" y="41" width="1" height="1" fill="#16AFFF" />
<rect x="325" y="41" width="1" height="1" fill="#16AFFF" />
<rect x="326" y="41" width="1" height="1" fill="#27C0FF" />
<rect x="327" y="41" width="1" height="1" fill="#27C0FF" />
<rect x="328" y="41" width="1" height="1" fill="#16AFFF" />
<rect x="329" y="41" width="1" height="1" fill="#16AFFF" />
<rect x="330" y="41" width="1" height="1" fill="#16AFFF" />
<rect x="331" y="41" width="1" height="1" fill="#0099FF" />
<rect x="307" y="42" width="1" height="1" fill="#0099FF" />
<rect x="308" y="42" width="1" height="1" fill="#0099FF" />
<rect x="309" y="42" width="1" height="1" fill="#0099FF" />
<rect x="310" y="42" width="1" height="1" fill="#16AFFF" />
<rect x="311" y="42" width="1" height="1" fill="#16AFFF" />
<rect x="312" y="42" width="1" height="1" fill="#16AFFF" />
<rect x="313" y="42" width="1" height="1" fill="#16AFFF" />
<rect x="314" y="42" width="1" height="1" fill="#16AFFF" />
<rect x="315" y="42" width="1" height="1" fill="#0099FF" />
<rect x="316" y="42" width="1" height="1" fill="#0099FF" />
<rect x="317" y="42" width="1" height="1" fill="#0099FF" />
<rect x="318" y="42" width="1" height="1" fill="#16AFFF" />
<rect x="319" y="42" width="1" height="1" fill="#27C0FF" />
<rect x="320" y="42" width="1" height="1" fill="#27C0FF" />
<rect x="321" y="42" width="1" height="1" fill="#27C0FF" />
<rect x="322" y="42" width="1" height="1" fill="#16AFFF" />
<rect x="323" y="42" width="1" height="1" fill="#16AFFF" />
<rect x="324" y="42" width="1" height="1" fill="#16AFFF" />
<rect x="325" y="42" width="1" height="1" fill="#16AFFF" />
<rect x="326" y="42" width="1" height="1" fill="#27C0FF" />
<rect x="327" y="42" width="1" height="1" fill="#27C0FF" />
<rect x="328" y="42" width="1" height="1" fill="#16AFFF" />
<rect x="329" y="42" width="1" height="1" fill="#16AFFF" />
<rect x="330" y="42" width="1" height="1" fill="#0099FF" />
<rect x="331" y="42" width="1" height="1" fill="#0099FF" />
<rect x="306" y="43" width="1" height="1" fill="#0099FF" />
<rect x="307" y="43" width="1" height="1" fill="#0099FF" />
<rect x="308" y="43" width="1" height="1" fill="#0099FF" />
<rect x="309" y="43" width="1" height="1" fill="#27C0FF" />
<rect x="310" y="43" width="1" height="1" fill="#27C0FF" />
<rect x="311" y="43" width="1" height="1" fill="#27C0FF" />
<rect x="312" y="43" width="1" height="1" fill="#27C0FF" />
<rect x="313" y="43" width="1" height="1" fill="#16AFFF" />
<rect x="314" y="43" width="1" height="1" fill="#16AFFF" />
<rect x="315" y="43" width="1" height="1" fill="#0099FF" />
<rect x="316" y="43" width="1" height="1" fill="#16AFFF" />
<rect x="317" y="43" width="1" height="1" fill="#16AFFF" />
<rect x="318" y="43" width="1" height="1" fill="#27C0FF" />
<rect x="319" y="43" width="1" height="1" fill="#27C0FF" />
<rect x="320" y="43" width="1" height="1" fill="#27C0FF" />
<rect x="321" y="43" width="1" height="1" fill="#0099FF" />
<rect x="322" y="43" width="1" height="1" fill="#0099FF" />
<rect x="323" y="43" width="1" height="1" fill="#16AFFF" />
<rect x="324" y="43" width="1" height="1" fill="#16AFFF" />
<rect x="325" y="43" width="1" height="1" fill="#0099FF" />
<rect x="326" y="43" width="1" height="1" fill="#16AFFF" />
<rect x="327" y="43" width="1" height="1" fill="#16AFFF" />
<rect x="328" y="43" width="1" height="1" fill="#16AFFF" />
<rect x="329" y="43" width="1" height="1" fill="#16AFFF" />
<rect x="330" y="43" width="1" height="1" fill="#0099FF" />
<rect x="331" y="43" width="1" height="1" fill="#0099FF" />
<rect x="332" y="43" width="1" height="1" fill="#0099FF" />
<rect x="306" y="44" width="1" height="1" fill="#16AFFF" />
<rect x="307" y="44" width="1" height="1" fill="#27C0FF" />
<rect x="308" y="44" width="1" height="1" fill="#27C0FF" />
<rect x="309" y="44" width="1" height="1" fill="#27C0FF" />
<rect x="310" y="44" width="1" height="1" fill="#27C0FF" />
<rect x="311" y="44" width="1" height="1" fill="#16AFFF" />
<rect x="312" y="44" width="1" height="1" fill="#16AFFF" />
<rect x="313" y="44" width="1" height="1" fill="#16AFFF" />
<rect x="314" y="44" width="1" height="1" fill="#16AFFF" />
<rect x="315" y="44" width="1" height="1" fill="#16AFFF" />
<rect x="316" y="44" width="1" height="1" fill="#27C0FF" />
<rect x="317" y="44" width="1" height="1" fill="#35CEFF" />
<rect x="318" y="44" width="1" height="1" fill="#35CEFF" />
<rect x="319" y="44" width="1" height="1" fill="#27C0FF" />
<rect x="320" y="44" width="1" height="1" fill="#16AFFF" />
<rect x="321" y="44" width="1" height="1" fill="#16AFFF" />
<rect x="322" y="44" width="1" height="1" fill="#27C0FF" />
<rect x="323" y="44" width="1" height="1" fill="#27C0FF" />
<rect x="324" y="44" width="1" height="1" fill="#27C0FF" />
<rect x="325" y="44" width="1" height="1" fill="#16AFFF" />
<rect x="326" y="44" width="1" height="1" fill="#16AFFF" />
<rect x="327" y="44" width="1" height="1" fill="#16AFFF" />
<rect x="328" y="44" width="1" height="1" fill="#0099FF" />
<rect x="329" y="44" width="1" height="1" fill="#0099FF" />
<rect x="330" y="44" width="1" height="1" fill="#0099FF" />
<rect x="331" y="44" width="1" height="1" fill="#0099FF" />
<rect x="332" y="44" width="1" height="1" fill="#0099FF" />
<rect x="306" y="45" width="1" height="1" fill="#16AFFF" />
<rect x="307" y="45" width="1" height="1" fill="#27C0FF" />
<rect x="308" y="45" width="1" height="1" fill="#27C0FF" />
<rect x="309" y="45" width="1" height="1" fill="#27C0FF" />
<rect x="310" y="45" width="1" height="1" fill="#0099FF" />
<rect x="311" y="45" width="1" height="1" fill="#0099FF" />
<rect x="312" y="45" width="1" height="1" fill="#0099FF" />
<rect x="313" y="45" width="1" height="1" fill="#27C0FF" />
<rect x="314" y="45" width="1" height="1" fill="#27C0FF" />
<rect x="315" y="45" width="1" height="1" fill="#27C0FF" />
<rect x="316" y="45" width="1" height="1" fill="#35CEFF" />
<rect x="317" y="45" width="1" height="1" fill="#35CEFF" />
<rect x="318" y="45" width="1" height="1" fill="#35CEFF" />
<rect x="319" y="45" width="1" height="1" fill="#27C0FF" />
<rect x="320" y="45" width="1" height="1" fill="#27C0FF" />
<rect x="321" y="45" width="1" height="1" fill="#27C0FF" />
<rect x="322" y="45" width="1" height="1" fill="#27C0FF" />
<rect x="323" y="45" width="1" height="1" fill="#27C0FF" />
<rect x="324" y="45" width="1" height="1" fill="#16AFFF" />
<rect x="325" y="45" width="1" height="1" fill="#16AFFF" />
<rect x="326" y="45" width="1" height="1" fill="#16AFFF" />
<rect x="327" y="45" width="1" height="1" fill="#0099FF" />
<rect x="328" y="45" width="1" height="1" fill="#0099FF" />
<rect x="329" y="45" width="1" height="1" fill="#0099FF" />
<rect x="330" y="45" width="1" height="1" fill="#0099FF" />
<rect x="331" y="45" width="1" height="1" fill="#0099FF" />
<rect x="332" y="45" width="1" height="1" fill="#0099FF" />
<rect x="306" y="46" width="1" height="1" fill="#0099FF" />
<rect x="307" y="46" width="1" height="1" fill="#16AFFF" />
<rect x="308" y="46" width="1" height="1" fill="#16AFFF" />
<rect x="309" y="46" width="1" height="1" fill="#16AFFF" />
<rect x="310" y="46" width="1" height="1" fill="#16AFFF" />
<rect x="311" y="46" width="1" height="1" fill="#27C0FF" />
<rect x="312" y="46" width="1" height="1" fill="#27C0FF" />
<rect x="313" y="46" width="1" height="1" fill="#27C0FF" />
<rect x="314" y="46" width="1" height="1" fill="#27C0FF" />
<rect x="315" y="46" width="1" height="1" fill="#27C0FF" />
<rect x="316" y="46" width="1" height="1" fill="#27C0FF" />
<rect x="317" y="46" width="1" height="1" fill="#27C0FF" />
<rect x="318" y="46" width="1" height="1" fill="#27C0FF" />
<rect x="319" y="46" width="1" height="1" fill="#27C0FF" />
<rect x="320" y="46" width="1" height="1" fill="#27C0FF" />
<rect x="321" y="46" width="1" height="1" fill="#27C0FF" />
<rect x="322" y="46" width="1" height="1" fill="#27C0FF" />
<rect x="323" y="46" width="1" height="1" fill="#0099FF" />
<rect x="324" y="46" width="1" height="1" fill="#0099FF" />
<rect x="325" y="46" width="1" height="1" fill="#0099FF" />
<rect x="326" y="46" width="1" height="1" fill="#0099FF" />
<rect x="327" y="46" width="1" height="1" fill="#0099FF" />
<rect x="328" y="46" width="1" height="1" fill="#0099FF" />
<rect x="329" y="46" width="1" height="1" fill="#0099FF" />
<rect x="330" y="46" width="1" height="1" fill="#0099FF" />
<rect x="331" y="46" width="1" height="1" fill="#0099FF" />
<rect x="332" y="46" width="1" height="1" fill="#0099FF" />
<rect x="306" y="47" width="1" height="1" fill="#0099FF" />
<rect x="307" y="47" width="1" height="1" fill="#16AFFF" />
<rect x="308" y="47" width="1" height="1" fill="#16AFFF" />
<rect x="309" y="47" width="1" height="1" fill="#16AFFF" />
<rect x="310" y="47" width="1" height="1" fill="#27C0FF" />
<rect x="311" y="47" width="1" height="1" fill="#27C0FF" />
<rect x="312" y="47" width="1" height="1" fill="#27C0FF" />
<rect x="313" y="47" width="1" height="1" fill="#27C0FF" />
<rect x="314" y="47" width="1" height="1" fill="#27C0FF" />
<rect x="315" y="47" width="1" height="1" fill="#27C0FF" />
<rect x="316" y="47" width="1" height="1" fill="#16AFFF" />
<rect x="317" y="47" width="1" height="1" fill="#0099FF" />
<rect x="318" y="47" width="1" height="1" fill="#0099FF" />
<rect x="319" y="47" width="1" height="1" fill="#0099FF" />
<rect x="320" y="47" width="1" height="1" fill="#16AFFF" />
<rect x="321" y="47" width="1" height="1" fill="#16AFFF" />
<rect x="322" y="47" width="1" height="1" fill="#0099FF" />
<rect x="323" y="47" width="1" height="1" fill="#0099FF" />
<rect x="324" y="47" width="1" height="1" fill="#0099FF" />
<rect x="325" y="47" width="1" height="1" fill="#0099FF" />
<rect x="326" y="47" width="1" height="1" fill="#0099FF" />
<rect x="327" y="47" width="1" height="1" fill="#0099FF" />
<rect x="328" y="47" width="1" height="1" fill="#0099FF" />
<rect x="329" y="47" width="1" height="1" fill="#0099FF" />
<rect x="330" y="47" width="1" height="1" fill="#0099FF" />
<rect x="331" y="47" width="1" height="1" fill="#0099FF" />
<rect x="332" y="47" width="1" height="1" fill="#0099FF" />
<rect x="306" y="48" width="1" height="1" fill="#0099FF" />
<rect x="307" y="48" width="1" height="1" fill="#0099FF" />
<rect x="308" y="48" width="1" height="1" fill="#16AFFF" />
<rect x="309" y="48" width="1" height="1" fill="#16AFFF" />
<rect x="310" y="48" width="1" height="1" fill="#16AFFF" />
<rect x="311" y="48" width="1" height="1" fill="#16AFFF" />
<rect x="312" y="48" width="1" height="1" fill="#16AFFF" />
<rect x="313" y="48" width="1" height="1" fill="#16AFFF" />
<rect x="314" y="48" width="1" height="1" fill="#16AFFF" />
<rect x="315" y="48" width="1" height="1" fill="#27C0FF" />
<rect x="316" y="48" width="1" height="1" fill="#16AFFF" />
<rect x="317" y="48" width="1" height="1" fill="#16AFFF" />
<rect x="318" y="48" width="1" height="1" fill="#0099FF" />
<rect x="319" y="48" width="1" height="1" fill="#0099FF" />
<rect x="320" y="48" width="1" height="1" fill="#0099FF" />
<rect x="321" y="48" width="1" height="1" fill="#0099FF" />
<rect x="322" y="48" width="1" height="1" fill="#0099FF" />
<rect x="323" y="48" width="1" height="1" fill="#0099FF" />
<rect x="324" y="48" width="1" height="1" fill="#0099FF" />
<rect x="325" y="48" width="1" height="1" fill="#0099FF" />
<rect x="326" y="48" width="1" height="1" fill="#0099FF" />
<rect x="327" y="48" width="1" height="1" fill="#0099FF" />
<rect x="328" y="48" width="1" height="1" fill="#0099FF" />
<rect x="329" y="48" width="1" height="1" fill="#0099FF" />
<rect x="330" y="48" width="1" height="1" fill="#0099FF" />
<rect x="331" y="48" width="1" height="1" fill="#0099FF" />
<rect x="332" y="48" width="1" height="1" fill="#0099FF" />
<rect x="307" y="49" width="1" height="1" fill="#0099FF" />
<rect x="308" y="49" width="1" height="1" fill="#16AFFF" />
<rect x="309" y="49" width="1" height="1" fill="#16AFFF" />
<rect x="310" y="49" width="1" height="1" fill="#27C0FF" />
<rect x="311" y="49" width="1" height="1" fill="#16AFFF" />
<rect x="312" y="49" width="1" height="1" fill="#16AFFF" />
<rect x="313" y="49" width="1" height="1" fill="#16AFFF" />
<rect x="314" y="49" width="1" height="1" fill="#16AFFF" />
<rect x="315" y="49" width="1" height="1" fill="#16AFFF" />
<rect x="316" y="49" width="1" height="1" fill="#16AFFF" />
<rect x="317" y="49" width="1" height="1" fill="#16AFFF" />
<rect x="318" y="49" width="1" height="1" fill="#16AFFF" />
<rect x="319" y="49" width="1" height="1" fill="#16AFFF" />
<rect x="320" y="49" width="1" height="1" fill="#0099FF" />
<rect x="321" y="49" width="1" height="1" fill="#0099FF" />
<rect x="322" y="49" width="1" height="1" fill="#0099FF" />
<rect x="323" y="49" width="1" height="1" fill="#0099FF" />
<rect x="324" y="49" width="1" height="1" fill="#0099FF" />
<rect x="325" y="49" width="1" height="1" fill="#0099FF" />
<rect x="326" y="49" width="1" height="1" fill="#0099FF" />
<rect x="327" y="49" width="1" height="1" fill="#0099FF" />
<rect x="328" y="49" width="1" height="1" fill="#0099FF" />
<rect x="329" y="49" width="1" height="1" fill="#0099FF" />
<rect x="330" y="49" width="1" height="1" fill="#0099FF" />
<rect x="331" y="49" width="1" height="1" fill="#0099FF" />
<rect x="307" y="50" width="1" height="1" fill="#0099FF" />
<rect x="308" y="50" width="1" height="1" fill="#0099FF" />
<rect x="309" y="50" width="1" height="1" fill="#16AFFF" />
<rect x="310" y="50" width="1" height="1" fill="#16AFFF" />
<rect x="311" y="50" width="1" height="1" fill="#16AFFF" />
<rect x="312" y="50" width="1" height="1" fill="#16AFFF" />
<rect x="313" y="50" width="1" height="1" fill="#16AFFF" />
<rect x="314" y="50" width="1" height="1" fill="#16AFFF" />
<rect x="315" y="50" width="1" height="1" fill="#16AFFF" />
<rect x="316" y="50" width="1" height="1" fill="#16AFFF" />
<rect x="317" y="50" width="1" height="1" fill="#16AFFF" />
<rect x="318" y="50" width="1" height="1" fill="#16AFFF" />
<rect x="319" y="50" width="1" height="1" fill="#16AFFF" />
<rect x="320" y="50" width="1" height="1" fill="#16AFFF" />
<rect x="321" y="50" width="1" height="1" fill="#16AFFF" />
<rect x="322" y="50" width="1" height="1" fill="#0099FF" />
<rect x="323" y="50" width="1" height="1" fill="#0099FF" />
<rect x="324" y="50" width="1" height="1" fill="#0099FF" />
<rect x="325" y="50" width="1" height="1" fill="#0099FF" />
<rect x="326" y="50" width="1" height="1" fill="#0099FF" />
<rect x="327" y="50" width="1" height="1" fill="#0099FF" />
<rect x="328" y="50" width="1" height="1" fill="#0099FF" />
<rect x="329" y="50" width="1" height="1" fill="#0099FF" />
<rect x="330" y="50" width="1" height="1" fill="#0099FF" />
<rect x="331" y="50" width="1" height="1" fill="#0099FF" />
<rect x="307" y="51" width="1" height="1" fill="#0099FF" />
<rect x="308" y="51" width="1" height="1" fill="#0099FF" />
<rect x="309" y="51" width="1" height="1" fill="#16AFFF" />
<rect x="310" y="51" width="1" height="1" fill="#16AFFF" />
<rect x="311" y="51" width="1" height="1" fill="#16AFFF" />
<rect x="312" y="51" width="1" height="1" fill="#16AFFF" />
<rect x="313" y="51" width="1" height="1" fill="#16AFFF" />
<rect x="314" y="51" width="1" height="1" fill="#16AFFF" />
<rect x="315" y="51" width="1" height="1" fill="#16AFFF" />
<rect x="316" y="51" width="1" height="1" fill="#16AFFF" />
<rect x="317" y="51" width="1" height="1" fill="#16AFFF" />
<rect x="318" y="51" width="1" height="1" fill="#16AFFF" />
<rect x="319" y="51" width="1" height="1" fill="#16AFFF" />
<rect x="320" y="51" width="1" height="1" fill="#16AFFF" />
<rect x="321" y="51" width="1" height="1" fill="#16AFFF" />
<rect x="322" y="51" width="1" height="1" fill="#0099FF" />
<rect x="323" y="51" width="1" height="1" fill="#0099FF" />
<rect x="324" y="51" width="1" height="1" fill="#0099FF" />
<rect x="325" y="51" width="1" height="1" fill="#0099FF" />
<rect x="326" y="51" width="1" height="1" fill="#0099FF" />
<rect x="327" y="51" width="1" height="1" fill="#0099FF" />
<rect x="328" y="51" width="1" height="1" fill="#0099FF" />
<rect x="329" y="51" width="1" height="1" fill="#0099FF" />
<rect x="330" y="51" width="1" height="1" fill="#0099FF" />
<rect x="331" y="51" width="1" height="1" fill="#0099FF" />
<rect x="308" y="52" width="1" height="1" fill="#0099FF" />
<rect x="309" y="52" width="1" height="1" fill="#0099FF" />
<rect x="310" y="52" width="1" height="1" fill="#16AFFF" />
<rect x="311" y="52" width="1" height="1" fill="#16AFFF" />
<rect x="312" y="52" width="1" height="1" fill="#16AFFF" />
<rect x="313" y="52" width="1" height="1" fill="#0099FF" />
<rect x="314" y="52" width="1" height="1" fill="#0099FF" />
<rect x="315" y="52" width="1" height="1" fill="#0099FF" />
<rect x="316" y="52" width="1" height="1" fill="#0099FF" />
<rect x="317" y="52" width="1" height="1" fill="#0099FF" />
<rect x="318" y="52" width="1" height="1" fill="#0099FF" />
<rect x="319" y="52" width="1" height="1" fill="#0099FF" />
<rect x="320" y="52" width="1" height="1" fill="#0099FF" />
<rect x="321" y="52" width="1" height="1" fill="#0099FF" />
<rect x="322" y="52" width="1" height="1" fill="#0099FF" />
<rect x="323" y="52" width="1" height="1" fill="#0099FF" />
<rect x="324" y="52" width="1" height="1" fill="#0099FF" />
<rect x="325" y="52" width="1" height="1" fill="#0099FF" />
<rect x="326" y="52" width="1" height="1" fill="#0099FF" />
<rect x="327" y="52" width="1" height="1" fill="#0099FF" />
<rect x="328" y="52" width="1" height="1" fill="#0099FF" />
<rect x="329" y="52" width="1" height="1" fill="#0099FF" />
<rect x="330" y="52" width="1" height="1" fill="#0099FF" />
<rect x="309" y="53" width="1" height="1" fill="#0099FF" />
<rect x="310" y="53" width="1" height="1" fill="#0099FF" />
<rect x="311" y="53" width="1" height="1" fill="#0099FF" />
<rect x="312" y="53" width="1" height="1" fill="#0099FF" />
<rect x="313" y="53" width="1" height="1" fill="#0099FF" />
<rect x="314" y="53" width="1" height="1" fill="#0099FF" />
<rect x="315" y="53" width="1" height="1" fill="#0099FF" />
<rect x="316" y="53" width="1" height="1" fill="#0099FF" />
<rect x="317" y="53" width="1" height="1" fill="#0099FF" />
<rect x="318" y="53" width="1" height="1" fill="#0099FF" />
<rect x="319" y="53" width="1" height="1" fill="#0099FF" />
<rect x="320" y="53" width="1" height="1" fill="#0099FF" />
<rect x="321" y="53" width="1" height="1" fill="#0099FF" />
<rect x="322" y="53" width="1" height="1" fill="#0099FF" />
<rect x="323" y="53" width="1" height="1" fill="#0099FF" />
<rect x="324" y="53" width="1" height="1" fill="#0099FF" />
<rect x="325" y="53" width="1" height="1" fill="#0099FF" />
<rect x="326" y="53" width="1" height="1" fill="#0099FF" />
<rect x="327" y="53" width="1" height="1" fill="#0099FF" />
<rect x="328" y="53" width="1" height="1" fill="#0099FF" />
<rect x="329" y="53" width="1" height="1" fill="#0099FF" />
<rect x="310" y="54" width="1" height="1" fill="#0099FF" />
<rect x="311" y="54" width="1" height="1" fill="#0099FF" />
<rect x="312" y="54" width="1" height="1" fill="#0099FF" />
<rect x="313" y="54" width="1" height="1" fill="#0099FF" />
<rect x="314" y="54" width="1" height="1" fill="#0099FF" />
<rect x="315" y="54" width="1" height="1" fill="#0099FF" />
<rect x="316" y="54" width="1" height="1" fill="#0099FF" />
<rect x="317" y="54" width="1" height="1" fill="#0099FF" />
<rect x="318" y="54" width="1" height="1" fill="#0099FF" />
<rect x="319" y="54" width="1" height="1" fill="#0099FF" />
<rect x="320" y="54" width="1" height="1" fill="#0099FF" />
<rect x="321" y="54" width="1" height="1" fill="#0099FF" />
<rect x="322" y="54" width="1" height="1" fill="#0099FF" />
<rect x="323" y="54" width="1" height="1" fill="#0099FF" />
<rect x="324" y="54" width="1" height="1" fill="#0099FF" />
<rect x="325" y="54" width="1" height="1" fill="#0099FF" />
<rect x="326" y="54" width="1" height="1" fill="#0099FF" />
<rect x="327" y="54" width="1" height="1" fill="#0099FF" />
<rect x="328" y="54" width="1" height="1" fill="#0099FF" />
<rect x="311" y="55" width="1" height="1" fill="#0099FF" />
<rect x="312" y="55" width="1" height="1" fill="#0099FF" />
<rect x="313" y="55" width="1" height="1" fill="#0099FF" />
<rect x="314" y="55" width="1" height="1" fill="#0099FF" />
<rect x="315" y="55" width="1" height="1" fill="#0099FF" />
<rect x="316" y="55" width="1" height="1" fill="#0099FF" />
<rect x="317" y="55" width="1" height="1" fill="#0099FF" />
<rect x="318" y="55" width="1" height="1" fill="#0099FF" />
<rect x="319" y="55" width="1" height="1" fill="#0099FF" />
<rect x="320" y="55" width="1" height="1" fill="#0099FF" />
<rect x="321" y="55" width="1" height="1" fill="#0099FF" />
<rect x="322" y="55" width="1" height="1" fill="#0099FF" />
<rect x="323" y="55" width="1" height="1" fill="#0099FF" />
<rect x="324" y="55" width="1" height="1" fill="#0099FF" />
<rect x="325" y="55" width="1" height="1" fill="#0099FF" />
<rect x="326" y="55" width="1" height="1" fill="#0099FF" />
<rect x="327" y="55" width="1" height="1" fill="#0099FF" />
<rect x="312" y="56" width="1" height="1" fill="#0099FF" />
<rect x="313" y="56" width="1" height="1" fill="#0099FF" />
<rect x="314" y="56" width="1" height="1" fill="#0099FF" />
<rect x="315" y="56" width="1" height="1" fill="#0099FF" />
<rect x="316" y="56" width="1" height="1" fill="#0099FF" />
<rect x="317" y="56" width="1" height="1" fill="#0099FF" />
<rect x="318" y="56" width="1" height="1" fill="#0099FF" />
<rect x="319" y="56" width="1" height="1" fill="#0099FF" />
<rect x="320" y="56" width="1" height="1" fill="#0099FF" />
<rect x="321" y="56" width="1" height="1" fill="#0099FF" />
<rect x="322" y="56" width="1" height="1" fill="#0099FF" />
<rect x="323" y="56" width="1" height="1" fill="#0099FF" />
<rect x="324" y="56" width="1" height="1" fill="#0099FF" />
<rect x="325" y="56" width="1" height="1" fill="#0099FF" />
<rect x="326" y="56" width="1" height="1" fill="#0099FF" />
<rect x="313" y="57" width="1" height="1" fill="#0099FF" />
<rect x="314" y="57" width="1" height="1" fill="#0099FF" />
<rect x="315" y="57" width="1" height="1" fill="#0099FF" />
<rect x="316" y="57" width="1" height="1" fill="#0099FF" />
<rect x="317" y="57" width="1" height="1" fill="#0099FF" />
<rect x="318" y="57" width="1" height="1" fill="#0099FF" />
<rect x="319" y="57" width="1" height="1" fill="#0099FF" />
<rect x="320" y="57" width="1" height="1" fill="#0099FF" />
<rect x="321" y="57" width="1" height="1" fill="#0099FF" />
<rect x="322" y="57" width="1" height="1" fill="#0099FF" />
<rect x="323" y="57" width="1" height="1" fill="#0099FF" />
<rect x="324" y="57" width="1" height="1" fill="#0099FF" />
<rect x="325" y="57" width="1" height="1" fill="#0099FF" />
<rect x="316" y="58" width="1" height="1" fill="#0099FF" />
<rect x="317" y="58" width="1" height="1" fill="#0099FF" />
<rect x="318" y="58" width="1" height="1" fill="#0099FF" />
<rect x="319" y="58" width="1" height="1" fill="#0099FF" />
<rect x="320" y="58" width="1" height="1" fill="#0099FF" />
<rect x="321" y="58" width="1" height="1" fill="#0099FF" />
<rect x="322" y="58" width="1" height="1" fill="#0099FF" />
</svg>