<?xml version="1.0" encoding="UTF-8" ?>
<svg version="1.1" width="256" height="200" xmlns="http://www.w3.org/2000/svg" shape-rendering="crispEdges">
<rect x="105" y="11" width="1" height="1" fill="#FFFFFF" />
<rect x="187" y="13" width="1" height="1" fill="#FFFFFF" />
<rect x="17" y="25" width="1" height="1" fill="#FFFFFF" />
<rect x="46" y="27" width="1" height="1" fill="#FFFFFF" />
<rect x="89" y="30" width="1" height="1" fill="#FFFFFF" />
<rect x="159" y="48" width="1" height="1" fill="#FFFFFF" />
<rect x="32" y="51" width="1" height="1" fill="#FFFFFF" />
<rect x="195" y="57" width="1" height="1" fill="#FFFFFF" />
<rect x="110" y="65" width="1" height="1" fill="#FFFFFF" />
<rect x="77" y="82" width="1" height="1" fill="#FFFFFF" />
<rect x="142" y="104" width="1" height="1" fill="#FFFFFF" />
<rect x="28" y="116" width="1" height="1" fill="#FFFFFF" />
<rect x="55" y="120" width="1" height="1" fill="#FFFFFF" />
<rect x="109" y="132" width="1" height="1" fill="#FFFFFF" />
<rect x="164" y="150" width="1" height="1" fill="#FFFFFF" />
<rect x="48" y="163" width="1" height="1" fill="#FFFFFF" />
<rect x="140" y="165" width="1" height="1" fill="#FFFFFF" />
</svg>